<mxfile host="app.diagrams.net" modified="2023-11-26T12:19:01.932Z" agent="Mozilla/5.0 (Windows NT 10.0; Win64; x64) AppleWebKit/537.36 (KHTML, like Gecko) Chrome/119.0.0.0 Safari/537.36" etag="G1jEh3RadSiAsmP0onGY" version="22.1.4" type="device">
  <diagram name="Page-1" id="PfihOsO0fXcNhbNBpuVP">
    <mxGraphModel dx="1450" dy="557" grid="0" gridSize="10" guides="1" tooltips="1" connect="1" arrows="1" fold="1" page="0" pageScale="1" pageWidth="850" pageHeight="1100" math="0" shadow="0">
      <root>
        <mxCell id="0" />
        <mxCell id="1" parent="0" />
        <mxCell id="EqIDWZd9TsldSwS-Rs7_-4" style="edgeStyle=orthogonalEdgeStyle;rounded=0;orthogonalLoop=1;jettySize=auto;html=1;exitX=1;exitY=0.25;exitDx=0;exitDy=0;entryX=0;entryY=0.25;entryDx=0;entryDy=0;" edge="1" parent="1" source="EqIDWZd9TsldSwS-Rs7_-1" target="EqIDWZd9TsldSwS-Rs7_-2">
          <mxGeometry relative="1" as="geometry">
            <mxPoint x="469.4000244140625" y="223" as="targetPoint" />
          </mxGeometry>
        </mxCell>
        <mxCell id="EqIDWZd9TsldSwS-Rs7_-5" value="&lt;font style=&quot;font-size: 13px;&quot;&gt;1. Mark with flag()&lt;/font&gt;" style="edgeLabel;html=1;align=center;verticalAlign=middle;resizable=0;points=[];" vertex="1" connectable="0" parent="EqIDWZd9TsldSwS-Rs7_-4">
          <mxGeometry x="0.0493" y="-3" relative="1" as="geometry">
            <mxPoint x="-9" y="-17" as="offset" />
          </mxGeometry>
        </mxCell>
        <mxCell id="EqIDWZd9TsldSwS-Rs7_-17" style="edgeStyle=orthogonalEdgeStyle;rounded=0;orthogonalLoop=1;jettySize=auto;html=1;exitX=0;exitY=0.75;exitDx=0;exitDy=0;entryX=1;entryY=0.75;entryDx=0;entryDy=0;endArrow=open;endFill=0;dashed=1;dashPattern=8 8;" edge="1" parent="1" source="EqIDWZd9TsldSwS-Rs7_-1" target="EqIDWZd9TsldSwS-Rs7_-14">
          <mxGeometry relative="1" as="geometry" />
        </mxCell>
        <mxCell id="EqIDWZd9TsldSwS-Rs7_-18" value="&lt;font style=&quot;font-size: 13px;&quot;&gt;6. Game won()&lt;/font&gt;" style="edgeLabel;html=1;align=center;verticalAlign=middle;resizable=0;points=[];" vertex="1" connectable="0" parent="EqIDWZd9TsldSwS-Rs7_-17">
          <mxGeometry x="0.0807" y="4" relative="1" as="geometry">
            <mxPoint x="-3" y="11" as="offset" />
          </mxGeometry>
        </mxCell>
        <mxCell id="EqIDWZd9TsldSwS-Rs7_-1" value="&lt;font style=&quot;font-size: 14px;&quot;&gt;Tile&lt;/font&gt;" style="rounded=1;whiteSpace=wrap;html=1;" vertex="1" parent="1">
          <mxGeometry x="215" y="207.75" width="104" height="58.5" as="geometry" />
        </mxCell>
        <mxCell id="EqIDWZd9TsldSwS-Rs7_-6" style="edgeStyle=orthogonalEdgeStyle;rounded=0;orthogonalLoop=1;jettySize=auto;html=1;exitX=0;exitY=0.75;exitDx=0;exitDy=0;entryX=1;entryY=0.75;entryDx=0;entryDy=0;dashed=1;dashPattern=8 8;endArrow=open;endFill=0;" edge="1" parent="1" source="EqIDWZd9TsldSwS-Rs7_-2" target="EqIDWZd9TsldSwS-Rs7_-1">
          <mxGeometry relative="1" as="geometry" />
        </mxCell>
        <mxCell id="EqIDWZd9TsldSwS-Rs7_-7" value="&lt;font style=&quot;font-size: 13px;&quot;&gt;5. Remain unchanged()&lt;/font&gt;" style="edgeLabel;html=1;align=center;verticalAlign=middle;resizable=0;points=[];" vertex="1" connectable="0" parent="EqIDWZd9TsldSwS-Rs7_-6">
          <mxGeometry x="0.0542" y="2" relative="1" as="geometry">
            <mxPoint x="2" y="12" as="offset" />
          </mxGeometry>
        </mxCell>
        <mxCell id="EqIDWZd9TsldSwS-Rs7_-10" style="edgeStyle=orthogonalEdgeStyle;rounded=0;orthogonalLoop=1;jettySize=auto;html=1;exitX=1;exitY=0.25;exitDx=0;exitDy=0;entryX=0;entryY=0.25;entryDx=0;entryDy=0;" edge="1" parent="1" source="EqIDWZd9TsldSwS-Rs7_-2" target="EqIDWZd9TsldSwS-Rs7_-9">
          <mxGeometry relative="1" as="geometry" />
        </mxCell>
        <mxCell id="EqIDWZd9TsldSwS-Rs7_-11" value="&lt;font style=&quot;font-size: 13px;&quot;&gt;3. Check if the game is over()&lt;/font&gt;" style="edgeLabel;html=1;align=center;verticalAlign=middle;resizable=0;points=[];" vertex="1" connectable="0" parent="EqIDWZd9TsldSwS-Rs7_-10">
          <mxGeometry x="0.0055" y="2" relative="1" as="geometry">
            <mxPoint x="2" y="-12" as="offset" />
          </mxGeometry>
        </mxCell>
        <mxCell id="EqIDWZd9TsldSwS-Rs7_-2" value="&lt;font style=&quot;font-size: 14px;&quot;&gt;Flag&lt;/font&gt;" style="rounded=1;whiteSpace=wrap;html=1;" vertex="1" parent="1">
          <mxGeometry x="502" y="208" width="120" height="58" as="geometry" />
        </mxCell>
        <mxCell id="EqIDWZd9TsldSwS-Rs7_-12" style="edgeStyle=orthogonalEdgeStyle;rounded=0;orthogonalLoop=1;jettySize=auto;html=1;exitX=0;exitY=0.75;exitDx=0;exitDy=0;entryX=1;entryY=0.75;entryDx=0;entryDy=0;endArrow=open;endFill=0;dashed=1;dashPattern=8 8;" edge="1" parent="1" source="EqIDWZd9TsldSwS-Rs7_-9" target="EqIDWZd9TsldSwS-Rs7_-2">
          <mxGeometry relative="1" as="geometry" />
        </mxCell>
        <mxCell id="EqIDWZd9TsldSwS-Rs7_-13" value="&lt;font style=&quot;font-size: 13px;&quot;&gt;4. All flags used in correct position()&lt;/font&gt;" style="edgeLabel;html=1;align=center;verticalAlign=middle;resizable=0;points=[];" vertex="1" connectable="0" parent="EqIDWZd9TsldSwS-Rs7_-12">
          <mxGeometry x="-0.0616" relative="1" as="geometry">
            <mxPoint x="-5" y="19" as="offset" />
          </mxGeometry>
        </mxCell>
        <mxCell id="EqIDWZd9TsldSwS-Rs7_-9" value="&lt;font style=&quot;font-size: 14px;&quot;&gt;Validation System&lt;/font&gt;" style="rounded=1;whiteSpace=wrap;html=1;" vertex="1" parent="1">
          <mxGeometry x="849" y="207.5" width="106" height="57.5" as="geometry" />
        </mxCell>
        <mxCell id="EqIDWZd9TsldSwS-Rs7_-15" style="edgeStyle=orthogonalEdgeStyle;rounded=0;orthogonalLoop=1;jettySize=auto;html=1;exitX=1;exitY=0.25;exitDx=0;exitDy=0;entryX=0;entryY=0.25;entryDx=0;entryDy=0;" edge="1" parent="1" source="EqIDWZd9TsldSwS-Rs7_-14" target="EqIDWZd9TsldSwS-Rs7_-1">
          <mxGeometry relative="1" as="geometry" />
        </mxCell>
        <mxCell id="EqIDWZd9TsldSwS-Rs7_-16" value="&lt;font style=&quot;font-size: 13px;&quot;&gt;1. Game in progress()&lt;/font&gt;" style="edgeLabel;html=1;align=center;verticalAlign=middle;resizable=0;points=[];" vertex="1" connectable="0" parent="EqIDWZd9TsldSwS-Rs7_-15">
          <mxGeometry x="-0.1547" y="1" relative="1" as="geometry">
            <mxPoint x="2" y="-16" as="offset" />
          </mxGeometry>
        </mxCell>
        <mxCell id="EqIDWZd9TsldSwS-Rs7_-14" value="&lt;font style=&quot;font-size: 14px;&quot;&gt;Game&lt;/font&gt;" style="rounded=1;whiteSpace=wrap;html=1;" vertex="1" parent="1">
          <mxGeometry x="-43" y="207.5" width="102" height="58.5" as="geometry" />
        </mxCell>
      </root>
    </mxGraphModel>
  </diagram>
</mxfile>
